# xmcd
#
# Track frame offsets:
#	155
#	13955
#	27730
#	40585
#	53297
#	65992
#	77202
#	97705
#	113605
#	130570
#	147592
#	160290
#	173810
#	191257
#	211465
#	223112
#	237900
#	255430
#	271055
#	284560
#
# Disc length: 4008 seconds
#
# Revision: 1
# Processed by: cddbd v1.4PL0 Copyright (c) Steve Scherf et al.
# Submitted via: audiograbber 1.81.02
#
DISCID=1c0fa614
DTITLE=Percy Sledge - The Magic Of Percy Sledge
DYEAR=1999
DGENRE=Alternative
TTITLE0=I Believe In You
TTITLE1=Take Time To Know Her
TTITLE2=I've Been Loving Yo Too Long
TTITLE3=Cover Me
TTITLE4=Sudden Stop
TTITLE5=Baby Help Me
TTITLE6=The Good Love
TTITLE7=Walking In The Sun
TTITLE8=Make It Good And Make It Last
TTITLE9=Behind Closed Doors
TTITLE10=It Tears Me Up
TTITLE11=When A Man Loves A Woman
TTITLE12=Try A Little Tenderness
TTITLE13=You Send Me
TTITLE14=Dock Of The Bay
TTITLE15=Warm And Tender Love
TTITLE16=If Lovin' You Is Wrong
TTITLE17=Bring It On Home
TTITLE18=My Special Prayer
TTITLE19=Just Out Of Reach
EXTD=PT Music  South Africa Licensed From San Juan\nRTBCD 2042
EXTT0=
EXTT1=
EXTT2=
EXTT3=
EXTT4=
EXTT5=
EXTT6=
EXTT7=
EXTT8=
EXTT9=
EXTT10=
EXTT11=
EXTT12=
EXTT13=
EXTT14=
EXTT15=
EXTT16=
EXTT17=
EXTT18=
EXTT19=
PLAYORDER=
